<?xml version="1.0" encoding="UTF-8"?>
<svg version="1.1" xmlns="http://www.w3.org/2000/svg" width="1536" height="444">
<path d="M0 0 C0.17015625 0.77085937 0.3403125 1.54171875 0.515625 2.3359375 C0.75796875 3.33882813 1.0003125 4.34171875 1.25 5.375 C1.59804688 6.87160156 1.59804688 6.87160156 1.953125 8.3984375 C2.71466939 11.12139521 2.71466939 11.12139521 4.91040039 11.95361328 C7.28620442 13.14331957 8.06050222 14.1311258 9.48046875 16.34375 C9.91842773 17.00858398 10.35638672 17.67341797 10.80761719 18.35839844 C11.26297852 19.06512695 11.71833984 19.77185547 12.1875 20.5 C16.19749683 26.57897007 20.3193892 31.85981142 25.515625 36.984375 C27 39 27 39 26.88671875 41.0625 C25.41487887 44.27850257 23.41421632 46.4091337 21 49 C20.34 49 19.68 49 19 49 C19 49.66 19 50.32 19 51 C8.08992857 46.40113581 0.38048333 31.57072499 -6 22 C-6 20.68 -6 19.36 -6 18 C-5.01 17.34 -4.02 16.68 -3 16 C-5.85432471 16.31110629 -8.70845525 16.62384426 -11.5625 16.9375 C-12.76229492 17.06801758 -12.76229492 17.06801758 -13.98632812 17.20117188 C-17.60741893 17.60023086 -21.20769679 18.03064379 -24.8125 18.5625 C-28.61185363 19.08397991 -32.17186387 19.06716028 -36 19 C-36.33 14.38 -36.66 9.76 -37 5 C-33.8753125 4.5978125 -33.8753125 4.5978125 -30.6875 4.1875 C-23.52267585 3.25063009 -16.39028919 2.13814259 -9.26049805 0.96557617 C-6.14075851 0.45913552 -3.16651114 0 0 0 Z " fill="#1B1B19" transform="translate(288,270)"/>
<path d="M0 0 C8.15924147 0.70755222 16.0604471 2.36212501 24.0625 4.0625 C25.4185384 4.34739292 26.77465768 4.63190109 28.13085938 4.91601562 C31.42138594 5.6069091 34.71104574 6.30166695 38 7 C37.33333333 11.66666667 36.66666667 16.33333333 36 21 C31.95963951 22.57683752 28.24648765 21.4583343 24.171875 20.56640625 C23.42286926 20.40961899 22.67386353 20.25283173 21.90216064 20.09129333 C19.51628751 19.58989774 17.133212 19.07638009 14.75 18.5625 C13.13037799 18.2199001 11.51058787 17.87809388 9.890625 17.53710938 C5.92507571 16.70059475 1.96199118 15.85320107 -2 15 C-1.84660456 13.39828806 -1.69128664 11.79676016 -1.53515625 10.1953125 C-1.44886963 9.30344238 -1.36258301 8.41157227 -1.27368164 7.49267578 C-0.99496662 4.95415624 -0.58037384 2.48731644 0 0 Z " fill="#1B1B18" transform="translate(108,258)"/>
<path d="M0 0 C3.51802689 1.25166414 6.04189933 2.62602685 8.8125 5.125 C9.41707031 5.66382812 10.02164062 6.20265625 10.64453125 6.7578125 C11.09183594 7.16773437 11.53914063 7.57765625 12 8 C11.42685587 12.01200891 9.38489178 14.26613318 6.8125 17.3125 C5.99652344 18.28445312 5.18054687 19.25640625 4.33984375 20.2578125 C3.18162109 21.61519531 3.18162109 21.61519531 2 23 C1.44441406 23.65742187 0.88882812 24.31484375 0.31640625 24.9921875 C-0.62549849 26.10001042 -1.57446014 27.20188215 -2.53125 28.296875 C-3.63744611 29.57959176 -4.71630675 30.88595835 -5.78125 32.203125 C-6.3896875 32.94046875 -6.998125 33.6778125 -7.625 34.4375 C-8.44871094 35.45650391 -8.44871094 35.45650391 -9.2890625 36.49609375 C-11 38 -11 38 -15 38 C-17.17578125 36.390625 -17.17578125 36.390625 -19.3125 34.25 C-20.03050781 33.55390625 -20.74851562 32.8578125 -21.48828125 32.140625 C-23 30 -23 30 -22.7902832 28.0715332 C-21.85820155 25.6283102 -20.77771238 24.48943459 -18.8671875 22.71484375 C-18.2285376 22.10648682 -17.5898877 21.49812988 -16.93188477 20.87133789 C-16.25311279 20.23317139 -15.57434082 19.59500488 -14.875 18.9375 C-8.8089686 13.08358264 -3.99605336 7.47899482 0 0 Z " fill="#1B1B19" transform="translate(1445,76)"/>
<path d="M0 0 C4.36452045 1.45484015 7.9000786 2.89540655 11.9375 4.9375 C19.15461103 8.3460432 26.16034665 9.76387209 34 11 C34.18451025 20.41002278 34.18451025 20.41002278 33 25 C19.93215629 25.37667842 6.47321314 21.23544192 -5 15 C-5.66 14.01 -6.32 13.02 -7 12 C-4.69 8.04 -2.38 4.08 0 0 Z " fill="#1B1B19" transform="translate(993,399)"/>
<path d="M0 0 C3.36042312 1.12014104 4.41746812 2.21490768 6.75 4.8125 C7.38421875 5.49957031 8.0184375 6.18664062 8.671875 6.89453125 C10 9 10 9 9.82421875 11.15234375 C8.71691637 13.63459032 7.29915467 14.60657293 5 16 C4.34 16 3.68 16 3 16 C3 16.66 3 17.32 3 18 C-1.47058824 22 -1.47058824 22 -4 22 C-4.33 22.99 -4.66 23.98 -5 25 C-6.39868164 26.25854492 -6.39868164 26.25854492 -8.16015625 27.48046875 C-8.78857422 27.92197266 -9.41699219 28.36347656 -10.06445312 28.81835938 C-11.05348633 29.49608398 -11.05348633 29.49608398 -12.0625 30.1875 C-12.72572266 30.65091797 -13.38894531 31.11433594 -14.07226562 31.59179688 C-15.71007505 32.73472863 -17.35442897 33.8682718 -19 35 C-22.05297101 33.67290554 -23.84224531 32.37204642 -25.8125 29.6875 C-26.25207031 29.11386719 -26.69164062 28.54023438 -27.14453125 27.94921875 C-28 26 -28 26 -28.0390625 23.5703125 C-26.54166153 19.86621537 -23.79353032 18.29126068 -20.5625 16.1875 C-19.28489546 15.31739457 -18.00886426 14.4449747 -16.734375 13.5703125 C-16.10208984 13.14008789 -15.46980469 12.70986328 -14.81835938 12.26660156 C-9.57286965 8.61278837 -4.44091161 4.61008919 0 0 Z " fill="#1B1B19" transform="translate(1396,128)"/>
<path d="M0 0 C1.41702513 0.14230808 2.8336096 0.28900746 4.25 0.4375 C5.43335938 0.55931641 5.43335938 0.55931641 6.640625 0.68359375 C8.82364639 0.97634993 10.8773182 1.42064419 13 2 C13.35080746 8.76898932 12.09862192 14.44510426 10.25 20.9375 C9.99734375 21.87529297 9.7446875 22.81308594 9.484375 23.77929688 C7.81500384 29.78485962 5.70403827 35.3845213 3 41 C-2.34844008 40.46515599 -6.35796103 38.53309233 -11 36 C-10.27029523 31.489897 -8.75498861 27.33330357 -7.1875 23.0625 C-4.4426024 15.45646661 -2.10429798 7.81065898 0 0 Z " fill="#1B1B19" transform="translate(1119,332)"/>
<path d="M0 0 C9.31483863 3.27369329 16.9539483 10.7656524 24.1875 17.3125 C24.75210937 17.81571777 25.31671875 18.31893555 25.8984375 18.83740234 C30.68986084 23.26946893 30.68986084 23.26946893 31 27 C29.78848458 28.20550294 28.55497111 29.38892747 27.3125 30.5625 C26.62800781 31.22378906 25.94351562 31.88507813 25.23828125 32.56640625 C23 34 23 34 20.6171875 34.06640625 C16.97705279 32.58318718 14.55263302 30.10201645 11.8125 27.375 C6.08714499 21.87221131 0.16190987 16.58095493 -7 13 C-6.65986985 7.55791766 -3.29703472 4.06331802 0 0 Z " fill="#1B1B19" transform="translate(1070,204)"/>
<path d="M0 0 C0.98204842 3.28128878 1.13412615 6.26975521 1.125 9.6875 C1.12886719 11.14736328 1.12886719 11.14736328 1.1328125 12.63671875 C1 15 1 15 0 16 C-2.20388519 16.3049211 -4.41364527 16.56755698 -6.625 16.8125 C-13.59258919 17.6423572 -20.12664537 19.23184327 -26.85546875 21.1953125 C-30 22 -30 22 -34 22 C-34.84069415 20.39967863 -35.67231505 18.79458829 -36.5 17.1875 C-36.9640625 16.29417969 -37.428125 15.40085938 -37.90625 14.48046875 C-39 12 -39 12 -39 9 C-13.03763699 -0.21257017 -13.03763699 -0.21257017 0 0 Z " fill="#1B1B19" transform="translate(360,121)"/>
<path d="M0 0 C2.50245106 1.00662505 3.96987122 2.26003326 5.890625 4.1484375 C6.51582031 4.74269531 7.14101562 5.33695312 7.78515625 5.94921875 C9.078125 7.8359375 9.078125 7.8359375 9.1015625 9.796875 C4.85788646 18.2518326 -9.5336502 24.50253856 -17.921875 27.8359375 C-21.05468504 28.54389322 -23.6964219 28.78032624 -26.921875 28.8359375 C-28.62126815 24.47662465 -30.08962645 20.44966491 -30.921875 15.8359375 C-30.18324219 15.54460937 -29.44460938 15.25328125 -28.68359375 14.953125 C-15.7776842 9.81400138 -15.7776842 9.81400138 -4.484375 1.8984375 C-1.921875 -0.1640625 -1.921875 -0.1640625 0 0 Z " fill="#1B1B19" transform="translate(1088.921875,393.1640625)"/>
<path d="M0 0 C3.05297101 1.32709446 4.84224531 2.62795358 6.8125 5.3125 C7.25207031 5.88613281 7.69164062 6.45976562 8.14453125 7.05078125 C9 9 9 9 9.0390625 11.3984375 C7.53506106 15.16409523 4.7497037 17.01157754 1.5625 19.3125 C0.96373047 19.76689453 0.36496094 20.22128906 -0.25195312 20.68945312 C-4.69754464 24 -4.69754464 24 -7 24 C-7 24.66 -7 25.32 -7 26 C-8.6436814 27.68933922 -10.3142876 29.35259924 -12 31 C-13.35555293 32.64864545 -14.69631653 34.31003995 -16 36 C-19.66060821 35.41463247 -21.54535164 33.916761 -24.25 31.4375 C-25.30960938 30.47650391 -25.30960938 30.47650391 -26.390625 29.49609375 C-26.92171875 29.00238281 -27.4528125 28.50867188 -28 28 C-27.42661132 24.79574378 -26.59568064 23.2418957 -24.19921875 21.0546875 C-23.35133789 20.27544922 -23.35133789 20.27544922 -22.48632812 19.48046875 C-21.89271484 18.95066406 -21.29910156 18.42085938 -20.6875 17.875 C-20.10548828 17.33746094 -19.52347656 16.79992187 -18.92382812 16.24609375 C-14.53689906 12.26158966 -14.53689906 12.26158966 -11.70703125 10.8828125 C-9.42104335 9.70058535 -9.10635392 8.28131893 -8 6 C-6.0546875 4.296875 -6.0546875 4.296875 -3.875 2.75 C-3.15054688 2.22921875 -2.42609375 1.7084375 -1.6796875 1.171875 C-1.12539063 0.78515625 -0.57109375 0.3984375 0 0 Z " fill="#1B1B19" transform="translate(994,283)"/>
<path d="M0 0 C3.36165806 1.41043479 5.09505232 3.01526034 7.25 5.9375 C8.03117188 6.97197266 8.03117188 6.97197266 8.828125 8.02734375 C10 10 10 10 10 13 C8.5390625 14.38671875 8.5390625 14.38671875 6.625 15.6875 C5.99851562 16.12449219 5.37203125 16.56148438 4.7265625 17.01171875 C3 18 3 18 1 18 C1 18.66 1 19.32 1 20 C-5.75 24 -5.75 24 -8 24 C-8.23976563 24.59167969 -8.47953125 25.18335938 -8.7265625 25.79296875 C-10.25973785 28.45015915 -11.83505209 29.61216942 -14.375 31.3125 C-15.14585937 31.84488281 -15.91671875 32.37726563 -16.7109375 32.92578125 C-19 34 -19 34 -21.0859375 33.953125 C-23.7385004 32.63225694 -24.70002296 30.93859931 -26.25 28.4375 C-26.77078125 27.61121094 -27.2915625 26.78492188 -27.828125 25.93359375 C-28.40820312 24.97646484 -28.40820312 24.97646484 -29 24 C-25.4944222 20.35186636 -21.8750037 17.23059283 -17.8125 14.1875 C-16.76707031 13.39730469 -15.72164062 12.60710937 -14.64453125 11.79296875 C-12 10 -12 10 -10 10 C-10 9.34 -10 8.68 -10 8 C-8.38542921 6.56418526 -6.70780925 5.19855217 -5 3.875 C-4.071875 3.15054687 -3.14375 2.42609375 -2.1875 1.6796875 C-1.1046875 0.84824219 -1.1046875 0.84824219 0 0 Z " fill="#1B1B19" transform="translate(632,281)"/>
<path d="M0 0 C0.61520508 0.28004883 1.23041016 0.56009766 1.86425781 0.84863281 C2.19425781 1.83863281 2.52425781 2.82863281 2.86425781 3.84863281 C3.52425781 3.84863281 4.18425781 3.84863281 4.86425781 3.84863281 C6.24658224 5.47489685 7.58363297 7.14113302 8.86425781 8.84863281 C7.49142154 12.05651656 6.05975687 13.68559615 3.30175781 15.78613281 C-2.41483814 20.58473525 -6.04449805 26.67545378 -10.13574219 32.84863281 C-11.12343584 34.19110778 -12.11785147 35.52890699 -13.13574219 36.84863281 C-22.73027522 33.95797222 -22.73027522 33.95797222 -26.13574219 30.84863281 C-23.15460766 20.79461047 -16.05128107 13.46890137 -8.88574219 6.09863281 C-7.98227051 5.14923828 -7.98227051 5.14923828 -7.06054688 4.18066406 C-6.48208008 3.601875 -5.90361328 3.02308594 -5.30761719 2.42675781 C-4.79295898 1.90500977 -4.27830078 1.38326172 -3.74804688 0.84570312 C-2.13574219 -0.15136719 -2.13574219 -0.15136719 0 0 Z " fill="#1B1B19" transform="translate(290.1357421875,151.1513671875)"/>
<path d="M0 0 C0 0.99 0 1.98 0 3 C0.66 3 1.32 3 2 3 C5.9756083 7.99790757 5.9756083 7.99790757 6.046875 10.92578125 C4.35612664 14.27573416 1.2255151 15.65656257 -1.9375 17.4375 C-2.61611084 17.83146973 -3.29472168 18.22543945 -3.99389648 18.63134766 C-8.55190336 21.2524311 -13.16996821 23.73040008 -17.9140625 26 C-19.78572398 26.89727591 -21.61531766 27.88108236 -23.4375 28.875 C-26 30 -26 30 -29 29 C-30.38671875 26.78515625 -30.38671875 26.78515625 -31.6875 24.0625 C-32.12449219 23.16660156 -32.56148437 22.27070313 -33.01171875 21.34765625 C-34 19 -34 19 -34 17 C-33.05253906 16.48953125 -33.05253906 16.48953125 -32.0859375 15.96875 C-27.83161227 13.66381299 -23.58612987 11.35005727 -19.3984375 8.92578125 C-18.79209473 8.57515625 -18.18575195 8.22453125 -17.56103516 7.86328125 C-15.82523635 6.85615291 -14.0922396 5.84419986 -12.359375 4.83203125 C-3.4989339 0 -3.4989339 0 0 0 Z " fill="#1B1B19" transform="translate(576,324)"/>
<path d="M0 0 C0.67467562 1.74692795 1.33944156 3.49768525 2 5.25 C2.37125 6.22453125 2.7425 7.1990625 3.125 8.203125 C4 11 4 11 4 15 C-0.16063736 16.41171304 -4.32326577 17.81734512 -8.48779297 19.2175293 C-9.90240959 19.69407766 -11.31648207 20.17224461 -12.72998047 20.65209961 C-14.76907561 21.34401244 -16.81009689 22.02996123 -18.8515625 22.71484375 C-20.07697754 23.12855225 -21.30239258 23.54226074 -22.56494141 23.96850586 C-25.71630272 24.91481016 -28.74560777 25.54473362 -32 26 C-32.67595315 24.58774074 -33.34040059 23.16997095 -34 21.75 C-34.37125 20.96109375 -34.7425 20.1721875 -35.125 19.359375 C-36 17 -36 17 -36 13 C-28.13188244 9.01484955 -20.1725496 5.90026529 -11.8125 3.125 C-10.87962158 2.8148999 -9.94674316 2.5047998 -8.9855957 2.18530273 C-2.28165683 0 -2.28165683 0 0 0 Z " fill="#1B1B19" transform="translate(820,165)"/>
<path d="M0 0 C5.97752133 4.02795937 7.18450783 15.3722155 8.72094727 22.015625 C8.94137695 22.91345703 9.16180664 23.81128906 9.38891602 24.73632812 C9.70022461 26.05600586 9.70022461 26.05600586 10.01782227 27.40234375 C10.20183594 28.18182373 10.38584961 28.96130371 10.57543945 29.7644043 C10.97094727 32.328125 10.97094727 32.328125 10.97094727 39.328125 C6.35094727 39.658125 1.73094727 39.988125 -3.02905273 40.328125 C-3.37967773 38.224375 -3.73030273 36.120625 -4.09155273 33.953125 C-5.42234404 26.66784303 -7.87964065 20.03156715 -10.77929688 13.23291016 C-13.12747802 7.62340086 -13.12747802 7.62340086 -12.02905273 4.328125 C-9.88452148 2.87109375 -9.88452148 2.87109375 -7.21655273 1.515625 C-5.90750977 0.82533203 -5.90750977 0.82533203 -4.57202148 0.12109375 C-2.02905273 -0.671875 -2.02905273 -0.671875 0 0 Z " fill="#1B1B19" transform="translate(1122.029052734375,259.671875)"/>
<path d="M0 0 C1.46563414 4.58010669 2.11009697 8.14197116 2 13 C0.87464844 13.36351562 -0.25070312 13.72703125 -1.41015625 14.1015625 C-10.47166118 17.05924723 -19.3565026 20.23187608 -28.15625 23.8984375 C-31 25 -31 25 -33 25 C-33.84026396 23.23244474 -34.67198722 21.46082737 -35.5 19.6875 C-35.9640625 18.70136719 -36.428125 17.71523438 -36.90625 16.69921875 C-38 14 -38 14 -38 11 C-30.20226977 6.92029698 -22.37190402 4.00639092 -13.9375 1.5625 C-13.02137939 1.29163574 -12.10525879 1.02077148 -11.16137695 0.74169922 C-10.292146 0.49822754 -9.42291504 0.25475586 -8.52734375 0.00390625 C-7.75124756 -0.21450928 -6.97515137 -0.4329248 -6.17553711 -0.65795898 C-3.79934701 -1.03154695 -2.26766015 -0.74320441 0 0 Z " fill="#1B1B19" transform="translate(1065,254)"/>
<path d="M0 0 C5.32656159 0.71674696 8.49222665 2.20518053 13 5 C12.04572953 9.53935081 9.81962231 12.92432263 7.375 16.8125 C6.92423096 17.53083008 6.47346191 18.24916016 6.0090332 18.98925781 C2.83001147 23.94583965 -0.45430974 28.21387238 -5 32 C-5.86625 32.825 -6.7325 33.65 -7.625 34.5 C-10 36 -10 36 -12.4375 36.1875 C-16.20478155 34.4416866 -18.99110212 31.64773562 -21 28 C-20.35671558 23.31910441 -17.17644946 21.00922 -13.875 17.9375 C-8.14265949 12.43762597 -3.8528085 6.99109615 0 0 Z " fill="#1B1B19" transform="translate(404,201)"/>
<path d="M0 0 C0.84768402 5.0861041 1.04298983 9.84122071 1 15 C-11.30461419 17.04622187 -23.58992395 18.73971749 -36 20 C-37.48686403 15.12378844 -38.20866177 11.11221339 -38 6 C-31.5849017 3.95086069 -25.08084227 2.91967234 -18.4375 1.875 C-16.77170898 1.60236328 -16.77170898 1.60236328 -15.07226562 1.32421875 C-13.45674805 1.06705078 -13.45674805 1.06705078 -11.80859375 0.8046875 C-10.83720459 0.64983887 -9.86581543 0.49499023 -8.86499023 0.33544922 C-5.88412793 -0.01356696 -2.99843483 -0.05718707 0 0 Z " fill="#1B1B19" transform="translate(1137,239)"/>
<path d="M0 0 C1.703125 2.08203125 1.703125 2.08203125 3.25 4.8125 C4.03117188 6.15248047 4.03117188 6.15248047 4.828125 7.51953125 C6 10 6 10 6 13 C5.29617188 13.31710938 4.59234375 13.63421875 3.8671875 13.9609375 C-5.56052441 18.41633138 -14.25153595 24.03257726 -22.15625 30.86328125 C-24 32 -24 32 -26.078125 31.890625 C-28.36672997 30.83005196 -29.30287766 29.80455641 -30.75 27.75 C-31.17796875 27.16734375 -31.6059375 26.5846875 -32.046875 25.984375 C-33.27504 23.42737573 -33.3307501 21.81312231 -33 19 C-31.39379883 17.44091797 -31.39379883 17.44091797 -29.14453125 16.1171875 C-28.32162598 15.61413086 -27.4987207 15.11107422 -26.65087891 14.59277344 C-25.77608887 14.0671582 -24.90129883 13.54154297 -24 13 C-22.28994986 11.86519908 -20.58553367 10.72186471 -18.88671875 9.5703125 C-17.15403712 8.42128474 -15.42096183 7.27285038 -13.6875 6.125 C-12.80771484 5.53203125 -11.92792969 4.9390625 -11.02148438 4.328125 C-10.17263672 3.76867187 -9.32378906 3.20921875 -8.44921875 2.6328125 C-7.68955811 2.12637207 -6.92989746 1.61993164 -6.1472168 1.09814453 C-4 0 -4 0 0 0 Z " fill="#1B1B19" transform="translate(753,195)"/>
<path d="M0 0 C0.50512244 1.60256108 1.00391627 3.20711792 1.5 4.8125 C1.7784375 5.70582031 2.056875 6.59914063 2.34375 7.51953125 C3 10 3 10 3 13 C-9.47850836 17.52301234 -21.83252478 19.53795871 -35 21 C-36.33583899 16.15758367 -37.25328119 12.06562383 -37 7 C-36.25878906 6.82984375 -35.51757812 6.6596875 -34.75390625 6.484375 C-31.85949909 5.81834251 -28.96569055 5.14977806 -26.07226562 4.47949219 C-24.63104325 4.14601425 -23.18962198 3.81339517 -21.74804688 3.48144531 C-19.4356081 2.94847769 -17.12399567 2.41204152 -14.8125 1.875 C-14.07008057 1.70452148 -13.32766113 1.53404297 -12.56274414 1.35839844 C-3.34422854 -0.79205413 -3.34422854 -0.79205413 0 0 Z " fill="#1B1B19" transform="translate(512,355)"/>
<path d="M0 0 C1.32 0 2.64 0 4 0 C4.84069415 1.60032137 5.67231505 3.20541171 6.5 4.8125 C6.9640625 5.70582031 7.428125 6.59914062 7.90625 7.51953125 C9 10 9 10 9 13 C-2.86056909 18.12959848 -14.75700539 22.86152295 -27 27 C-27.68095109 25.63201789 -28.34408239 24.25515997 -29 22.875 C-29.37125 22.10929687 -29.7425 21.34359375 -30.125 20.5546875 C-31.14307513 17.58227173 -31.14472534 15.12064006 -31 12 C-28.62556386 11.10264816 -26.25059966 10.20676387 -23.875 9.3125 C-23.15884521 9.04284424 -22.44269043 8.77318848 -21.70483398 8.49536133 C-15.69685469 6.24212094 -9.65696457 4.09132137 -3.59765625 1.98046875 C-1.10670034 1.24398476 -1.10670034 1.24398476 0 0 Z " fill="#1B1B19" transform="translate(1272,204)"/>
<path d="M0 0 C2.15234375 0.9296875 2.15234375 0.9296875 3.96484375 4.1796875 C5.01319179 7.49026025 5.26315242 9.54710713 5.15234375 12.9296875 C-1.53164269 16.38561231 -8.27805666 19.64020081 -15.16015625 22.6796875 C-16.14532227 23.11970093 -16.14532227 23.11970093 -17.15039062 23.56860352 C-21.32082866 25.39027694 -25.44656234 26.76820864 -29.84765625 27.9296875 C-30.71345912 25.99735929 -31.56495566 24.05861556 -32.41015625 22.1171875 C-32.88582031 21.03824219 -33.36148437 19.95929688 -33.8515625 18.84765625 C-34.84765625 15.9296875 -34.84765625 15.9296875 -33.84765625 12.9296875 C-31.03125 11.82421875 -31.03125 11.82421875 -27.28515625 10.7421875 C-20.49470261 8.69233273 -14.40412647 5.89299292 -8.21655273 2.43286133 C-5.3415596 0.88592004 -3.29918342 -0.08146132 0 0 Z " fill="#1B1B19" transform="translate(354.84765625,246.0703125)"/>
<path d="M0 0 C3.77141154 1.25713718 4.05175299 2.34682217 5.8125 5.8125 C6.27269531 6.68519531 6.73289062 7.55789062 7.20703125 8.45703125 C8 11 8 11 7.37890625 12.96337891 C5.5466358 15.66961122 3.61925816 16.61552372 0.73046875 18.12890625 C-0.32333984 18.68900391 -1.37714844 19.24910156 -2.46289062 19.82617188 C-3.56826172 20.39916016 -4.67363281 20.97214844 -5.8125 21.5625 C-7.98608944 22.70885389 -10.15928073 23.8559631 -12.33203125 25.00390625 C-13.29858643 25.50736572 -14.2651416 26.0108252 -15.26098633 26.52954102 C-17.11327611 27.52395597 -18.9339134 28.57930624 -20.72045898 29.6875 C-23 31 -23 31 -25.140625 30.99609375 C-27.82362379 29.55877297 -28.48067635 27.79311292 -29.75 25.0625 C-30.39195313 23.71865234 -30.39195313 23.71865234 -31.046875 22.34765625 C-32 20 -32 20 -32 18 C-31.16339844 17.59910156 -30.32679687 17.19820312 -29.46484375 16.78515625 C-19.2694187 11.80599518 -9.44736976 6.29824651 0 0 Z " fill="#1B1B19" transform="translate(1338,170)"/>
<path d="M0 0 C2.50676147 1.13532684 3.28975994 2.35056466 4.69921875 4.6953125 C5.1271875 5.38238281 5.55515625 6.06945312 5.99609375 6.77734375 C6.94921875 8.8828125 6.94921875 8.8828125 6.94921875 12.8828125 C6.28921875 12.8828125 5.62921875 12.8828125 4.94921875 12.8828125 C4.61921875 13.8728125 4.28921875 14.8628125 3.94921875 15.8828125 C2.0859375 17.390625 2.0859375 17.390625 -0.36328125 19.0078125 C-4.51448241 21.82127109 -8.5924268 24.7001429 -12.61328125 27.6953125 C-13.62519531 28.44425781 -14.63710938 29.19320313 -15.6796875 29.96484375 C-18.11322076 31.66256805 -18.11322076 31.66256805 -19.05078125 33.8828125 C-22.20218548 33.54212015 -23.65859686 33.30204409 -25.86328125 30.9453125 C-27.05078125 28.8828125 -27.05078125 28.8828125 -27.05078125 26.8828125 C-27.71078125 26.8828125 -28.37078125 26.8828125 -29.05078125 26.8828125 C-29.38078125 25.2328125 -29.71078125 23.5828125 -30.05078125 21.8828125 C-29.52871094 21.56570313 -29.00664063 21.24859375 -28.46875 20.921875 C-22.65693563 17.23732718 -17.74181526 12.96906738 -12.69921875 8.30078125 C-10.38576282 6.18864376 -8.06207056 4.14797164 -5.61328125 2.1953125 C-5.01644531 1.71707031 -4.41960938 1.23882812 -3.8046875 0.74609375 C-2.05078125 -0.1171875 -2.05078125 -0.1171875 0 0 Z " fill="#1B1B19" transform="translate(691.05078125,236.1171875)"/>
<path d="M0 0 C4.85834353 0.70879516 8.57395923 1.96402124 13 4 C10.5862582 17.35100932 4.93138356 28.50809828 -2 40 C-6.81714842 38.48525928 -10.69304252 36.58417449 -15 34 C-14.384977 29.36504407 -12.44698533 25.59175324 -10.3125 21.5 C-9.58818767 20.08417934 -8.8655557 18.66749788 -8.14453125 17.25 C-7.78439941 16.54230469 -7.42426758 15.83460937 -7.05322266 15.10546875 C-4.56661232 10.13455369 -2.28925558 5.06411083 0 0 Z " fill="#1B1B19" transform="translate(1480,15)"/>
<path d="M0 0 C5.38388404 0.43564253 8.80173504 2.6008647 13.0625 5.6875 C19.7483572 10.35664236 26.44915727 13.86760993 34 17 C33.54554036 18.41791408 33.08625056 19.83428046 32.625 21.25 C32.24214844 22.43335938 32.24214844 22.43335938 31.8515625 23.640625 C31.04826333 25.86627958 30.10288338 27.90931672 29 30 C24.93792071 29.38634798 21.81624827 28.06224867 18.18359375 26.1640625 C17.08982422 25.59429687 15.99605469 25.02453125 14.86914062 24.4375 C13.17047852 23.5403125 13.17047852 23.5403125 11.4375 22.625 C10.30119141 22.03460938 9.16488281 21.44421875 7.99414062 20.8359375 C-1.19437315 16.02213205 -1.19437315 16.02213205 -5 13 C-4.48474397 7.71862571 -2.74522883 4.42778844 0 0 Z " fill="#1B1B19" transform="translate(339,333)"/>
<path d="M0 0 C5.86809649 0.88749992 9.33807574 5.68239336 13 10 C17.78587571 16.97317047 24 26.2652284 24 35 C22.4188708 35.50692692 20.83498617 36.00526443 19.25 36.5 C18.36828125 36.7784375 17.4865625 37.056875 16.578125 37.34375 C14 38 14 38 10 38 C9.56300781 36.83984375 9.56300781 36.83984375 9.1171875 35.65625 C6.7412353 29.61923937 4.31366053 24.51051661 0.13671875 19.5234375 C-1 18 -1 18 -1 16 C-1.99 15.67 -2.98 15.34 -4 15 C-4 14.34 -4 13.68 -4 13 C-5.32 12.34 -6.64 11.68 -8 11 C-5.71461395 6.91036181 -3.04293074 3.53637896 0 0 Z " fill="#1B1B19" transform="translate(397,133)"/>
<path d="M0 0 C0.13535156 0.86238281 0.27070313 1.72476563 0.41015625 2.61328125 C1.9629818 11.41882491 4.41437825 19.43688431 7.75024414 27.73950195 C8.05438232 28.51124756 8.35852051 29.28299316 8.671875 30.078125 C8.9512793 30.76293945 9.23068359 31.44775391 9.51855469 32.15332031 C10 34 10 34 9 37 C7.328125 37.94921875 7.328125 37.94921875 5.25 38.6875 C4.57453125 38.93886719 3.8990625 39.19023437 3.203125 39.44921875 C0.73286158 40.0667846 -1.46270208 40.03697385 -4 40 C-5.50231922 35.75783797 -6.97242835 31.50515498 -8.4375 27.25 C-9.06881836 25.46916016 -9.06881836 25.46916016 -9.71289062 23.65234375 C-12.31167837 16.04309324 -13.77897275 9.04576182 -14 1 C-9.2646044 0.34684199 -4.78966676 -0.05489589 0 0 Z " fill="#1B1B19" transform="translate(268,217)"/>
<path d="M0 0 C8.63833811 0.18742142 17.23655326 1.69977069 25.75 3.0625 C26.9359375 3.24876953 28.121875 3.43503906 29.34375 3.62695312 C32.22979449 4.0808069 35.11516345 4.5385416 38 5 C37.430756 10.40781799 36.53371845 14.63198544 35 20 C22.79 18.02 10.58 16.04 -2 14 C-1 1 -1 1 0 0 Z " fill="#1B1B19" transform="translate(930,159)"/>
<path d="M0 0 C0.50471197 1.76949612 1.00360685 3.54065223 1.5 5.3125 C1.7784375 6.29863281 2.056875 7.28476563 2.34375 8.30078125 C3 11 3 11 3 14 C-9.62354229 17.05464588 -22.05786 19.75770289 -35 21 C-36.33583899 16.15758367 -37.25328119 12.06562383 -37 7 C-33.63415273 5.31707637 -29.82080349 5.16439136 -26.125 4.625 C-19.41500553 3.61568841 -12.89044557 2.38652789 -6.34765625 0.55078125 C-4 0 -4 0 0 0 Z " fill="#1B1B19" transform="translate(1208,227)"/>
<path d="M0 0 C6.84093703 1.35146821 13.12922285 3.35718436 19.625 5.875 C20.52734375 6.21402344 21.4296875 6.55304688 22.359375 6.90234375 C27.537773 8.88764794 32.26658854 11.10808012 37 14 C35.35 17.96 33.7 21.92 32 26 C27.0205643 25.17009405 23.56964994 24.1605864 19 22.25 C12.61815131 19.60757833 6.18054227 17.27534975 -0.3671875 15.078125 C-3 14 -3 14 -4 12 C-3.43100339 9.93560025 -2.77181998 7.89548723 -2.0625 5.875 C-1.68222656 4.77929688 -1.30195312 3.68359375 -0.91015625 2.5546875 C-0.60980469 1.71164063 -0.30945313 0.86859375 0 0 Z " fill="#1B1B19" transform="translate(1002,173)"/>
<path d="M0 0 C4.62683313 0.40486694 9.25327062 0.81391472 13.87939453 1.22680664 C15.45253539 1.36662338 17.02577748 1.50530595 18.59912109 1.64282227 C20.86323303 1.84091418 23.12694711 2.04310925 25.390625 2.24609375 C26.09181458 2.3065538 26.79300415 2.36701385 27.51544189 2.42930603 C30.75934999 2.72397066 33.87127968 3.07050349 37 4 C37.02694851 5.95825873 37.04637218 7.91662226 37.0625 9.875 C37.07410156 10.96554687 37.08570313 12.05609375 37.09765625 13.1796875 C37 16 37 16 36 18 C28.61490866 18.17936336 21.51033174 17.48590694 14.1875 16.5625 C13.06923828 16.42779297 11.95097656 16.29308594 10.79882812 16.15429688 C1.84580532 15.05329527 1.84580532 15.05329527 -2 14 C-1.85923685 12.0412957 -1.7122324 10.08303907 -1.5625 8.125 C-1.48128906 7.03445313 -1.40007812 5.94390625 -1.31640625 4.8203125 C-1 2 -1 2 0 0 Z " fill="#1B1B18" transform="translate(180,271)"/>
<path d="M0 0 C8.7465219 0.52546934 17.16693615 1.82938134 25.75 3.5625 C26.9359375 3.79646484 28.121875 4.03042969 29.34375 4.27148438 C32.23037916 4.84182643 35.1156884 5.41807186 38 6 C37.85795259 7.58367747 37.71119847 9.16693318 37.5625 10.75 C37.48128906 11.63171875 37.40007812 12.5134375 37.31640625 13.421875 C37.03761535 15.69350452 36.61209423 17.79851823 36 20 C29.04355683 19.53516854 22.42653304 18.28781585 15.62890625 16.765625 C10.12165285 15.60370717 4.57149234 14.78667251 -1 14 C-2.62567592 9.1343406 -1.08501017 4.85063371 0 0 Z " fill="#1B1B19" transform="translate(36,245)"/>
<path d="M0 0 C4.29 0.33 8.58 0.66 13 1 C14 4 14 4 13.9375 7.625 C13.85437143 15.18970016 16.18057067 22.06420384 19 29 C19.66 30.65 20.32 32.3 21 34 C17.04 36.31 13.08 38.62 9 41 C1.36864375 28.06909081 -3.01357396 15.06786981 0 0 Z " fill="#1B1B19" transform="translate(950,345)"/>
<path d="M0 0 C1.10287354 0.12846313 1.10287354 0.12846313 2.22802734 0.25952148 C5.61025595 0.65300778 8.99262647 1.04526143 12.375 1.4375 C13.53128906 1.57220703 14.68757813 1.70691406 15.87890625 1.84570312 C22.58118514 2.62195576 29.28440879 3.34867618 36 4 C36 8.62 36 13.24 36 18 C29.04796125 18.20150837 22.28348512 17.83741007 15.375 17.125 C14.58826904 17.04652832 13.80153809 16.96805664 12.9909668 16.88720703 C7.55895173 16.29729982 2.30842427 15.28875954 -3 14 C-2.69147815 12.041036 -2.3780582 10.08284287 -2.0625 8.125 C-1.88847656 7.03445313 -1.71445312 5.94390625 -1.53515625 4.8203125 C-1 2 -1 2 0 0 Z " fill="#1B1B19" transform="translate(405,360)"/>
<path d="M0 0 C1.45702511 0.01004845 2.91405691 0.01917101 4.37109375 0.02734375 C7.91420329 0.04921289 11.45705812 0.08364023 15 0.125 C15 4.415 15 8.705 15 13.125 C11.01660592 13.41246143 7.03314176 13.69814589 3.04931641 13.97949219 C1.03664439 14.12239813 -0.97582109 14.26820349 -2.98828125 14.4140625 C-16.32206284 15.35211749 -16.32206284 15.35211749 -22 15.125 C-23.81115956 13.31384044 -23.38199448 10.51221773 -23.5625 8.0625 C-23.64628906 6.95777344 -23.73007812 5.85304687 -23.81640625 4.71484375 C-23.90728516 3.43287109 -23.90728516 3.43287109 -24 2.125 C-16.12417789 -0.47976408 -8.19387967 -0.09854223 0 0 Z " fill="#1B1B19" transform="translate(879,156.875)"/>
</svg>
