<svg id="Layer_1" data-name="Layer 1" xmlns="http://www.w3.org/2000/svg" xmlns:xlink="http://www.w3.org/1999/xlink" viewBox="0 0 199.73 216.87"><defs><linearGradient id="linear-gradient" x1="139.55" y1="93.28" x2="209.36" y2="93.28" gradientUnits="userSpaceOnUse"><stop offset="0" stop-color="#394141"/><stop offset="1" stop-color="#4ca456"/><stop offset="1" stop-color="#fff"/><stop offset="1" stop-color="#4ca456"/></linearGradient><linearGradient id="linear-gradient-2" x1="125.09" y1="159.04" x2="224.87" y2="159.04" gradientUnits="userSpaceOnUse"><stop offset="0" stop-color="#4ca456"/><stop offset="0" stop-color="#fff"/><stop offset="0" stop-color="#4ca456"/><stop offset="0" stop-color="#5bb462"/><stop offset="1" stop-color="#394141"/></linearGradient><linearGradient id="linear-gradient-3" x1="40.64" y1="183.55" x2="158.41" y2="183.55" gradientUnits="userSpaceOnUse"><stop offset="0" stop-color="#5bb462"/><stop offset="1" stop-color="#394141"/></linearGradient><linearGradient id="linear-gradient-4" x1="25.13" y1="91.77" x2="146.82" y2="91.77" gradientUnits="userSpaceOnUse"><stop offset="0" stop-color="#8fd974"/><stop offset="0" stop-color="#394141"/><stop offset="1" stop-color="#7ac968"/></linearGradient></defs><title>logo</title><path d="M139.55,75.05l21.91-22,47.19,47.07c4,19.13-10.52,33.33-10.52,33.33" transform="translate(-25.13 -16.57)" style="fill:url(#linear-gradient)"/><path d="M158.41,217.22c-19.12,4-33.32-10.53-33.32-10.53l73-73.21s14.56-14.2,10.52-33.33l4.07,4.06a41.37,41.37,0,0,1,.07,58.5Z" transform="translate(-25.13 -16.57)" style="fill:url(#linear-gradient-2)"/><path d="M95.86,221.35,41.35,167c-4-19.13,10.52-33.32,10.52-33.32l73.22,73s14.2,14.56,33.32,10.53l-4,4.06A41.36,41.36,0,0,1,95.86,221.35Z" transform="translate(-25.13 -16.57)" style="fill:url(#linear-gradient-3)"/><path d="M51.87,133.66S37.31,147.85,41.35,167l-4.07-4.06a41.37,41.37,0,0,1-.07-58.5l87.65-87.85,22,21.91-21.91,22" transform="translate(-25.13 -16.57)" style="fill:url(#linear-gradient-4)"/><text transform="translate(55.24 123.63)" style="font-size:90px;fill:#394141;font-family:Jokerman-Regular, Jokerman">...</text></svg>